<svg version="1" xmlns="http://www.w3.org/2000/svg" width="417.333" height="417.333" viewBox="0 0 313.000000 313.000000"><path d="M142.5.6c-42.7 5-77 22.4-103.1 52.2-18.8 21.5-32 48.6-37 76.2-2.7 14.6-2.4 43.2.5 57 6.9 32.5 20.1 57.2 43 80.1C76.6 296.7 113 312 155.5 312c22.9 0 39.3-3.1 59.5-11.3 35.2-14.3 65.6-43.2 81.9-77.8 5.7-12.1 9.2-22.7 12.2-37.1 2.9-13.7 3.2-42.4.5-56.8C299.3 72.8 258.9 26 205.4 8.2c-19.5-6.5-45.2-9.6-62.9-7.6zm40.4 12.9c29 5.7 53.7 19 75.2 40.4 42 42.1 54.1 101.7 31.9 157.3-6.5 16.2-4 16.7-25.1-4.9-10.1-10.3-20-20.4-22-22.5-5.1-5.3-7.4-5-15.2 1.7l-6.4 5.4-6.8-6.9c-5.2-5.4-7.4-7-9.5-7-2.4 0-6.5 3.8-25.3 23l-22.5 23.1-21.3-21.6c-13.7-13.8-22.1-21.5-23.4-21.5-1.2 0-4.8 2.9-8.6 7-3.7 3.9-7 7-7.4 7-.4 0-3.4-2.2-6.7-5-4-3.4-6.9-5-8.8-5-2.3 0-6.5 3.8-25.5 23.5C43 220.4 32.4 231 32.1 231c-1.2 0-9.7-18-13-27.3-5.7-16.1-7.4-27.2-7.5-46.7-.1-11 .4-20.1 1.3-24.5 6.4-33.2 20.2-59 43.5-81.2C78.9 29.8 106.7 16.4 138 12c9.4-1.3 35.1-.4 44.9 1.5zm41.4 197c10.3 11 18.7 20.2 18.7 20.5 0 .3-17.5.5-39 .5-21.4 0-39-.2-39-.5 0-.7 39.4-40.7 40.1-40.6.3.1 9 9.1 19.2 20.1zm30.5 1.4c10 10.4 18.2 19.1 18.2 19.3 0 .1-3.3.2-7.3 0l-7.4-.3-9-9.7c-4.9-5.3-11.6-12.5-14.8-16l-5.8-6.3 3.4-2.9c1.9-1.6 3.7-2.9 4-3 .3 0 8.7 8.5 18.7 18.9zM149 231c0 .3-16 .5-35.5.5s-35.5-.2-35.5-.4 2.4-2.9 5.3-6c2.8-3.1 10.6-11.4 17.1-18.4l12-12.8 18.3 18.3c10.1 10.1 18.3 18.5 18.3 18.8zm-63.2-31.1l3.3 2.8-13.2 14.1-13.1 14-7.1.4c-4 .2-7.4.2-7.6.1-.7-.5 32.2-34 33.4-34.1.6-.1 2.5 1.1 4.3 2.7zM272 242.7c0 .5-3 4.3-6.6 8.5-6.3 7.6-6.6 7.8-11 7.8-2.6 0-9-1.6-15.2-3.7-10.3-3.6-11.2-3.8-23.7-3.7-12.4 0-13.5.2-23.7 3.7-8.7 3-12.1 3.7-18.3 3.7-6.2 0-9.6-.7-18.3-3.7-10.2-3.5-11.3-3.7-23.7-3.8-12.5 0-13.4.1-23.6 3.7-15.5 5.5-24.1 5.3-41.4-1.2-3.3-1.3-9.3-2.5-13.3-2.8-6.9-.4-7.4-.6-10.2-4.2-1.7-2.1-3-4.1-3-4.4 0-.3 52.2-.6 116-.6s116 .3 116 .7zm-121.2 23c10.1 3.6 11.4 3.8 22.7 3.8 11.3 0 12.6-.2 22.7-3.8 14.8-5.2 23.3-5.2 38.8-.1 6 2 10.7 4 10.4 4.5-.3.5-3.4 2.9-6.9 5.5-6 4.2-6.8 4.5-10.6 3.9-2.3-.4-7.4-1.9-11.3-3.3-5.9-2.1-8.8-2.6-17.1-2.6-8.6 0-10.9.4-17 2.8-10 4.1-20.1 4.1-30.5.1-6.5-2.5-8.9-2.9-17.5-2.9s-11.1.4-18 2.9c-10.6 3.9-19 4-29.5.3-4.1-1.4-9.7-2.9-12.5-3.3-3.8-.6-6.3-1.8-10.7-5.4-3.1-2.5-5.5-4.7-5.3-4.9.2-.2 4.6 1.1 9.7 2.9 8.8 3.2 10 3.4 21.8 3.3 11.8-.1 13-.3 22-3.7 8.4-3.2 10.6-3.6 18.8-3.6 8.3-.1 10.5.3 20 3.6zm-2.1 21.5c13.6 4.4 23 4.4 36.6 0 5.3-1.8 11.8-3.2 14.4-3.2 5.1 0 16.3 2.8 16.3 4 0 .9-13.2 5.8-22.1 8.4-17.2 4.9-42.9 6.3-60.9 3.2-9.9-1.7-30-7.4-30-8.6 0-.4 1.9-.7 4.3-.8 2.4-.1 8.1-1.5 12.7-3.2 11.1-3.9 16.4-3.8 28.7.2z"/><path d="M89.1 62.6c-2.7 1.9-6 8.8-6.1 12.5 0 3-1.3 4.3-5.2 5.3-4.3 1-9.8 6.3-9.8 9.5 0 3.8 3.2 6.5 6.5 5.7 1.4-.4 2.5-1.1 2.5-1.6 0-1.7 5.8-4 10-3.8 2.2.1 4.6-.4 5.3-1.1.7-.7 1.2-4.1 1.3-8 0-5.3.5-7.4 2.2-9.8 2.8-4 2.8-6.8 0-8.7-2.8-2-3.8-2-6.7 0zM199.2 79c-15.8 3.7-22.8 24.1-12.8 37.3 4.9 6.5 10.6 9.2 19.2 9.2 6.1 0 7.7-.4 12-3 13.3-8.3 15.3-26.3 4.2-37.4-5.8-5.9-14.1-8.1-22.6-6.1zm11.3 11.4c6.9 2.9 9.9 13.3 5.4 19-6.9 8.8-19.8 6.3-23.1-4.5-.9-3.1-.8-4.3.8-7.5 2.1-4.4 7.5-8.4 11.1-8.4 1.3 0 3.9.6 5.8 1.4zM119 109.2c-1.2 1.3-2.6 4.1-3.2 6.3-.9 3.2-1.9 4.4-5.2 6-5.4 2.6-7.4 6.6-5.2 10.1 2.1 3 6.5 3.2 9.2.3 1.3-1.4 2.6-1.9 4.5-1.5 4.5.9 6.9-1.7 6.9-7.7.1-3 .7-6 1.5-7.1 2-2.6 1.9-4.9-.3-6.9-2.6-2.3-5.7-2.1-8.2.5z"/></svg>